<svg width="296" height="282" viewBox="0 0 296 282" fill="none" xmlns="http://www.w3.org/2000/svg">
<g clip-path="url(#clip0_513_6647)">
<path fill-rule="evenodd" clip-rule="evenodd" d="M132.35 133.4L143.22 156L201.42 33.61H175.97L143.22 102.02C141.12 73.88 122.06 59.07 102.92 41.69C94.4199 33.97 79.4199 14.53 80.0799 2.69C80.1999 0.490002 79.8299 0 79.8299 0C71.9099 14.87 73.7599 29.58 86.5499 41C92.4099 46.25 97.4199 49.3 104.26 55.53C111.1 61.76 123.43 69.09 128.56 79.34C136.68 95.57 141.97 116.47 132.35 133.34" fill="#333333"/>
<path fill-rule="evenodd" clip-rule="evenodd" d="M131.98 125.84C135.68 99.0501 131.15 82.8401 109.2 66.2401C102.73 61.3601 91.86 54.5801 85.87 49.5101C79.88 44.4401 71.71 35.1001 71.71 35.1001C61.17 69.1001 101.04 78.4301 118.85 101.84C123.31 107.7 129.53 120.53 129.53 120.53L131.98 125.84Z" fill="#CDAA4B"/>
<path fill-rule="evenodd" clip-rule="evenodd" d="M129.72 129.07C129.72 129.07 125.56 118.56 121.9 112.88C112.37 98.1199 107.01 95.36 94.4803 84.7299C92.4803 83.0199 91.0603 81.9199 91.0603 81.9199C90.6503 102.1 101.78 110.45 117.44 120.52C122.57 123.81 129.72 129.07 129.72 129.07Z" fill="#CDAA4B"/>
<path d="M4.72032 198.09C4.07032 196.3 3.48031 194.87 2.96031 193.78C2.58846 192.944 2.13988 192.143 1.62032 191.39C1.33967 190.934 0.984769 190.529 0.570312 190.19V189.77H12.2003V190.19C12.0369 190.569 12.0121 190.994 12.1303 191.39C12.2203 191.9 12.4003 192.7 12.6603 193.78C13.0407 195.248 13.5218 196.688 14.1003 198.09L23.1003 222.27L30.4403 197.94C30.9034 196.595 31.0838 195.168 30.9703 193.75C30.8769 192.922 30.5702 192.133 30.0803 191.46C29.584 190.861 28.9237 190.419 28.1803 190.19L28.3203 189.77H38.4003L38.2603 190.19C37.2935 190.437 36.3834 190.868 35.5803 191.46C34.6884 192.121 33.9056 192.917 33.2603 193.82C32.3422 195.111 31.6647 196.558 31.2603 198.09L20.3403 233.62H18.3403L4.72032 198.09Z" fill="#333333"/>
<path d="M54.4302 233.05H42.9302V232.7C43.1457 232.297 43.3135 231.871 43.4302 231.43C43.6147 230.653 43.745 229.865 43.8202 229.07C43.9302 228.01 43.9902 226.59 43.9902 224.8V198.09C43.9902 196.3 43.9302 194.87 43.8202 193.78C43.7472 192.975 43.6168 192.176 43.4302 191.39C43.3253 190.967 43.1567 190.562 42.9302 190.19V189.77H54.4302V190.19C54.157 190.545 53.9627 190.954 53.8602 191.39C53.6764 192.175 53.5593 192.975 53.5102 193.78C53.4202 194.87 53.3702 196.3 53.3702 198.09V224.84C53.3702 226.63 53.4202 228.05 53.5102 229.11C53.5612 229.905 53.6783 230.694 53.8602 231.47C53.9745 231.923 54.1674 232.353 54.4302 232.74V233.05Z" fill="#333333"/>
<path d="M97.3599 189.77H97.7099V199.14H97.3599C96.5518 197.816 95.5393 196.628 94.3599 195.62C93.0652 194.524 91.6413 193.59 90.1199 192.84C88.0137 191.849 85.7614 191.204 83.4499 190.93C83.2548 191.696 83.1145 192.474 83.0299 193.26C82.8649 194.854 82.7948 196.457 82.8199 198.06V224.84C82.8199 226.63 82.8699 228.05 82.9599 229.11C83.011 229.905 83.128 230.694 83.3099 231.47C83.4242 231.923 83.6171 232.353 83.8799 232.74V233.09H72.3799V232.74C72.5955 232.337 72.7633 231.911 72.8799 231.47C73.0644 230.693 73.1947 229.905 73.2699 229.11C73.3799 228.05 73.4399 226.63 73.4399 224.84V198.09C73.4661 196.5 73.396 194.911 73.2299 193.33C73.1441 192.554 73.0037 191.786 72.8099 191.03C70.5221 191.294 68.2946 191.94 66.2199 192.94C64.7307 193.675 63.3425 194.599 62.0899 195.69C60.9547 196.665 60.0001 197.833 59.2699 199.14H58.9199V189.77H97.3399H97.3599Z" fill="#333333"/>
<path d="M140.72 189.77H141.12V199.14H140.77C139.962 197.816 138.95 196.628 137.77 195.62C136.464 194.533 135.03 193.61 133.5 192.87C131.398 191.878 129.149 191.232 126.84 190.96C126.645 191.726 126.505 192.504 126.42 193.29C126.255 194.884 126.185 196.487 126.21 198.09V224.84C126.21 226.63 126.21 228.05 126.35 229.11C126.401 229.905 126.518 230.694 126.7 231.47C126.813 231.922 127.002 232.352 127.26 232.74V233.09H115.76V232.74C115.971 232.335 116.139 231.91 116.26 231.47C116.44 230.693 116.567 229.904 116.64 229.11C116.777 227.691 116.837 226.265 116.82 224.84V198.09C116.846 196.5 116.776 194.911 116.61 193.33C116.524 192.554 116.384 191.786 116.19 191.03C113.9 191.296 111.669 191.942 109.59 192.94C108.105 193.677 106.721 194.602 105.47 195.69C104.335 196.665 103.381 197.833 102.65 199.14H102.3V189.77H140.72Z" fill="#333333"/>
<path d="M186.12 211.2C186.194 214.552 185.546 217.88 184.22 220.96C183.053 223.633 181.32 226.022 179.14 227.96C177.039 229.814 174.597 231.24 171.95 232.16C166.662 234.04 160.888 234.04 155.6 232.16C152.954 231.24 150.511 229.814 148.41 227.96C146.23 226.022 144.497 223.633 143.33 220.96C140.797 214.71 140.797 207.72 143.33 201.47C144.508 198.82 146.24 196.453 148.41 194.53C150.511 192.676 152.954 191.25 155.6 190.33C160.888 188.45 166.662 188.45 171.95 190.33C174.597 191.25 177.039 192.676 179.14 194.53C181.31 196.453 183.043 198.82 184.22 201.47C185.548 204.538 186.196 207.857 186.12 211.2ZM176.61 211.2C176.731 207.132 176.083 203.078 174.7 199.25C173.725 196.509 172.091 194.05 169.94 192.09C168.255 190.553 166.056 189.701 163.775 189.701C161.494 189.701 159.296 190.553 157.61 192.09C155.46 194.05 153.825 196.509 152.85 199.25C150.303 207.023 150.303 215.407 152.85 223.18C153.815 225.935 155.451 228.406 157.61 230.37C159.293 231.913 161.492 232.769 163.775 232.769C166.058 232.769 168.258 231.913 169.94 230.37C172.1 228.406 173.735 225.935 174.7 223.18C176.08 219.341 176.728 215.278 176.61 211.2Z" fill="#333333"/>
<path d="M222.99 224.84C224.21 226.84 225.2 228.33 225.99 229.39C226.553 230.212 227.164 231 227.82 231.75C228.149 232.188 228.587 232.533 229.09 232.75V233.1H216.12V232.75C216.252 232.57 216.341 232.361 216.379 232.141C216.417 231.92 216.404 231.694 216.34 231.48C216.147 230.673 215.886 229.883 215.56 229.12C214.921 227.642 214.173 226.215 213.32 224.85L207.77 215.62H199.7V224.84C199.7 226.63 199.7 228.05 199.84 229.11C199.891 229.905 200.008 230.694 200.19 231.47C200.288 231.917 200.457 232.346 200.69 232.74V233.09H189.29V232.74C189.501 232.335 189.669 231.91 189.79 231.47C189.975 230.693 190.105 229.905 190.18 229.11C190.29 228.05 190.35 226.63 190.35 224.84V198.09C190.35 196.3 190.29 194.88 190.18 193.82C190.105 193.025 189.975 192.237 189.79 191.46C189.669 191.02 189.501 190.594 189.29 190.19V189.84L208.29 189.77H208.22C211.188 189.707 214.151 190.044 217.03 190.77C219.186 191.314 221.221 192.257 223.03 193.55C224.486 194.615 225.66 196.019 226.45 197.64C227.184 199.204 227.56 200.912 227.55 202.64C227.555 205.297 226.542 207.856 224.72 209.79C222.576 212.041 219.842 213.642 216.83 214.41L222.99 224.84ZM203.31 214.76C205.66 214.818 208.004 214.511 210.26 213.85C211.941 213.352 213.488 212.484 214.79 211.31C215.916 210.266 216.762 208.956 217.25 207.5C217.756 205.954 218.006 204.336 217.99 202.71C218.006 201.088 217.794 199.473 217.36 197.91C216.978 196.488 216.262 195.178 215.273 194.087C214.283 192.997 213.048 192.158 211.67 191.64C209.896 190.98 208.012 190.668 206.12 190.72H200.5C200.283 191.437 200.12 192.169 200.01 192.91C199.782 194.64 199.688 196.385 199.73 198.13V214.76H203.31Z" fill="#333333"/>
<path d="M245.12 233.05H233.64V232.7C233.847 232.295 234.011 231.869 234.13 231.43C234.315 230.653 234.445 229.865 234.52 229.07C234.657 227.651 234.717 226.225 234.7 224.8V198.09C234.716 196.651 234.656 195.212 234.52 193.78C234.447 192.975 234.317 192.176 234.13 191.39C234.023 190.969 233.858 190.566 233.64 190.19V189.77H245.12V190.19C244.851 190.546 244.66 190.955 244.56 191.39C244.377 192.176 244.257 192.975 244.2 193.78C244.11 194.87 244.06 196.3 244.06 198.09V224.84C244.06 226.63 244.11 228.05 244.2 229.11C244.258 229.905 244.379 230.694 244.56 231.47C244.673 231.922 244.862 232.352 245.12 232.74V233.05Z" fill="#333333"/>
<path d="M294.34 211.2C294.414 214.552 293.766 217.881 292.44 220.96C291.273 223.633 289.54 226.022 287.36 227.96C285.259 229.814 282.817 231.24 280.17 232.16C274.879 234.04 269.101 234.04 263.81 232.16C261.164 231.238 258.723 229.812 256.62 227.96C254.446 226.018 252.717 223.631 251.55 220.96C249.003 214.713 249.003 207.717 251.55 201.47C252.728 198.823 254.456 196.457 256.62 194.53C258.723 192.678 261.164 191.252 263.81 190.33C269.101 188.45 274.879 188.45 280.17 190.33C282.817 191.25 285.259 192.676 287.36 194.53C289.53 196.454 291.262 198.82 292.44 201.47C293.768 204.538 294.416 207.858 294.34 211.2ZM284.82 211.2C284.944 207.133 284.299 203.078 282.92 199.25C281.942 196.511 280.307 194.052 278.16 192.09C276.473 190.552 274.273 189.7 271.99 189.7C269.707 189.7 267.507 190.552 265.82 192.09C263.673 194.052 262.039 196.511 261.06 199.25C258.526 207.025 258.526 215.404 261.06 223.18C262.029 225.933 263.664 228.403 265.82 230.37C267.504 231.914 269.706 232.77 271.99 232.77C274.275 232.77 276.476 231.914 278.16 230.37C280.316 228.403 281.951 225.933 282.92 223.18C284.296 219.34 284.941 215.277 284.82 211.2Z" fill="#333333"/>
<path d="M98.36 252.44H0V257.44H98.36V252.44Z" fill="#019247"/>
<path d="M196.72 252.44H98.3604V257.44H196.72V252.44Z" fill="white"/>
<path d="M295.08 252.44H196.72V257.44H295.08V252.44Z" fill="#CE2A37"/>
<rect x="-0.5" y="251.94" width="296.08" height="6" stroke="#EEEEEE"/>
<path d="M0 281.22V271.14H0.729996V281.22H0Z" fill="#333333"/>
<path d="M4.25 281.22V271.14H4.87L12.05 280.31H11.72V271.14H12.46V281.22H11.85L4.64999 272.04H4.98V281.22H4.25Z" fill="#333333"/>
<path d="M17.9 281.22V271.84H14.27V271.18H22.27V271.84H18.64V281.26L17.9 281.22Z" fill="#333333"/>
<path d="M24.82 280.56H31.04V281.22H24.04V271.14H30.78V271.84H24.78L24.82 280.56ZM24.73 275.77H30.19V276.42H24.73V275.77Z" fill="#333333"/>
<path d="M33.7202 281.22V271.14H37.3402C38.0836 271.119 38.823 271.256 39.5102 271.54C40.0823 271.778 40.57 272.182 40.9102 272.7C41.2473 273.25 41.4175 273.885 41.4002 274.53C41.4165 275.168 41.2462 275.797 40.9102 276.34C40.5705 276.861 40.083 277.268 39.5102 277.51C38.8239 277.798 38.0844 277.938 37.3402 277.92H34.1202L34.4502 277.57V281.22H33.7202ZM34.4502 277.62L34.1202 277.27H37.3402C38.2229 277.33 39.0983 277.075 39.8102 276.55C40.3354 276.017 40.6298 275.298 40.6298 274.55C40.6298 273.801 40.3354 273.083 39.8102 272.55C39.0947 272.033 38.2211 271.782 37.3402 271.84H34.1202L34.4502 271.48V277.62ZM40.7202 281.22L38.1202 277.56H38.9502L41.5802 281.22H40.7202Z" fill="#333333"/>
<path d="M44.1201 281.22V271.14H44.7401L51.9301 280.31H51.6001V271.14H52.3301V281.22H51.7301L44.5301 272.04H44.8601V281.22H44.1201Z" fill="#333333"/>
<path d="M54.1201 281.22L58.7601 271.14H59.5001L64.1201 281.22H63.3301L58.9501 271.6H59.2701L54.9001 281.22H54.1201ZM55.8201 278.38L56.0701 277.76H62.0701L62.3201 278.38H55.8201Z" fill="#333333"/>
<path d="M67.4 281.22V271.84H63.77V271.18H71.77V271.84H68.12V281.26L67.4 281.22Z" fill="#333333"/>
<path d="M73.5801 281.22V271.14H74.3101V281.22H73.5801Z" fill="#333333"/>
<path d="M82.1203 281.29C81.4092 281.296 80.7033 281.167 80.0403 280.91C79.4183 280.663 78.8509 280.296 78.3703 279.83C77.8941 279.367 77.5165 278.813 77.2603 278.2C76.7401 276.9 76.7401 275.45 77.2603 274.15C77.5177 273.536 77.8967 272.98 78.3745 272.516C78.8522 272.052 79.4188 271.689 80.0403 271.45C81.3782 270.93 82.8624 270.93 84.2003 271.45C84.8206 271.69 85.3855 272.054 85.8603 272.52C86.3321 272.983 86.7092 273.533 86.9703 274.14C87.4903 275.45 87.4903 276.91 86.9703 278.22C86.7042 278.824 86.3278 279.374 85.8603 279.84C85.3836 280.303 84.8193 280.667 84.2003 280.91C83.537 281.166 82.8313 281.295 82.1203 281.29ZM82.1203 280.61C82.7294 280.616 83.3339 280.504 83.9003 280.28C84.4354 280.071 84.9221 279.754 85.3303 279.35C85.9462 278.705 86.3626 277.895 86.5294 277.019C86.6962 276.142 86.6062 275.236 86.2703 274.41C86.0522 273.886 85.7328 273.41 85.3303 273.01C84.9252 272.599 84.4379 272.279 83.9003 272.07C83.3339 271.846 82.7294 271.734 82.1203 271.74C81.5079 271.734 80.9001 271.846 80.3303 272.07C79.7993 272.285 79.3159 272.602 78.9075 273.003C78.4991 273.405 78.1739 273.883 77.9503 274.41C77.7169 274.97 77.6011 275.573 77.6103 276.18C77.6022 276.78 77.7179 277.376 77.9503 277.93C78.1674 278.462 78.4903 278.945 78.8994 279.349C79.3085 279.753 79.7953 280.07 80.3303 280.28C80.9001 280.504 81.5079 280.616 82.1203 280.61Z" fill="#333333"/>
<path d="M89.8999 281.22V271.14H90.5199L97.7099 280.31H97.3799V271.14H98.1199V281.22H97.5199L90.3099 272.04H90.6499V281.22H89.8999Z" fill="#333333"/>
<path d="M99.9399 281.22L104.58 271.14H105.32L109.95 281.22H109.12L104.74 271.6H105.12L100.75 281.22H99.9399ZM101.64 278.38L101.89 277.76H107.89L108.14 278.38H101.64Z" fill="#333333"/>
<path d="M111.78 281.22V271.14H112.52V280.56H118.32V281.22H111.78Z" fill="#333333"/>
<path d="M124.65 281.22H123.91V271.14H130.65V271.84H124.65V281.22ZM124.56 276.1H130.02V276.77H124.56V276.1Z" fill="#333333"/>
<path d="M133 281.22V271.14H136.62C137.363 271.119 138.103 271.256 138.79 271.54C139.362 271.778 139.85 272.182 140.19 272.7C140.531 273.248 140.702 273.885 140.68 274.53C140.701 275.169 140.53 275.799 140.19 276.34C139.85 276.861 139.363 277.268 138.79 277.51C138.104 277.798 137.364 277.938 136.62 277.92H133.41L133.74 277.57V281.22H133ZM133.74 277.62L133.41 277.27H136.62C137.503 277.332 138.379 277.077 139.09 276.55C139.615 276.017 139.91 275.298 139.91 274.55C139.91 273.801 139.615 273.083 139.09 272.55C138.375 272.031 137.501 271.78 136.62 271.84H133.41L133.74 271.48V277.62ZM140 281.22L137.38 277.56H138.22L140.84 281.22H140Z" fill="#333333"/>
<path d="M141.69 281.22L146.33 271.14H147.06L151.7 281.22H150.91L146.53 271.6H146.85L142.48 281.22H141.69ZM143.39 278.38L143.63 277.76H149.63L149.87 278.38H143.39Z" fill="#333333"/>
<path d="M157.69 281.29C156.972 281.296 156.26 281.167 155.59 280.91C154.967 280.664 154.396 280.301 153.91 279.84C153.442 279.376 153.069 278.826 152.81 278.22C152.29 276.91 152.29 275.45 152.81 274.14C153.064 273.529 153.442 272.977 153.92 272.52C154.404 272.056 154.975 271.692 155.6 271.45C156.271 271.184 156.988 271.051 157.71 271.06C158.392 271.059 159.069 271.178 159.71 271.41C160.314 271.615 160.861 271.957 161.31 272.41L160.85 272.9C160.44 272.488 159.945 272.171 159.4 271.97C158.849 271.785 158.271 271.694 157.69 271.7C157.071 271.694 156.457 271.806 155.88 272.03C155.333 272.239 154.836 272.559 154.42 272.97C153.995 273.367 153.654 273.847 153.42 274.38C153.196 274.939 153.084 275.537 153.09 276.14C153.084 276.739 153.196 277.334 153.42 277.89C153.657 278.424 153.997 278.907 154.42 279.31C154.839 279.715 155.336 280.031 155.88 280.24C156.457 280.464 157.071 280.576 157.69 280.57C158.264 280.574 158.835 280.482 159.38 280.3C159.932 280.111 160.435 279.8 160.85 279.39L161.26 279.95C160.801 280.4 160.248 280.742 159.64 280.95C159.012 281.167 158.354 281.281 157.69 281.29ZM160.59 279.92V276.22H161.29V279.99L160.59 279.92Z" fill="#333333"/>
<path d="M164.52 281.22V271.14H168.12C168.863 271.119 169.603 271.256 170.29 271.54C170.862 271.778 171.35 272.182 171.69 272.7C172.031 273.248 172.202 273.885 172.18 274.53C172.201 275.169 172.03 275.799 171.69 276.34C171.35 276.861 170.863 277.268 170.29 277.51C169.604 277.798 168.864 277.938 168.12 277.92H164.92L165.26 277.57V281.22H164.52ZM165.26 277.62L164.92 277.27H168.12C169.003 277.332 169.879 277.077 170.59 276.55C171.115 276.017 171.41 275.298 171.41 274.55C171.41 273.801 171.115 273.083 170.59 272.55C169.875 272.031 169.001 271.78 168.12 271.84H164.92L165.26 271.48V277.62ZM171.52 281.22L168.9 277.56H169.74L172.36 281.22H171.52Z" fill="#333333"/>
<path d="M173.21 281.22L177.85 271.14H178.58L183.22 281.22H182.43L178.05 271.6H178.36L174 281.22H173.21ZM174.91 278.38L175.15 277.76H181.15L181.39 278.38H174.91Z" fill="#333333"/>
<path d="M185.05 281.22V271.14H185.67L192.86 280.31H192.52V271.14H193.26V281.22H192.65L185.45 272.04H185.78V281.22H185.05Z" fill="#333333"/>
<path d="M201.04 281.29C200.329 281.295 199.623 281.166 198.96 280.91C198.341 280.674 197.776 280.314 197.301 279.851C196.827 279.388 196.452 278.833 196.2 278.22C195.68 276.91 195.68 275.45 196.2 274.14C196.454 273.531 196.828 272.98 197.3 272.52C197.778 272.058 198.342 271.695 198.96 271.45C199.621 271.186 200.328 271.053 201.04 271.06C201.723 271.054 202.4 271.173 203.04 271.41C203.642 271.618 204.189 271.96 204.64 272.41L204.17 272.89C203.767 272.482 203.279 272.167 202.74 271.97C201.617 271.58 200.392 271.598 199.28 272.02C198.741 272.231 198.251 272.551 197.84 272.96C197.436 273.364 197.113 273.843 196.89 274.37C196.662 274.929 196.547 275.527 196.55 276.13C196.547 276.73 196.662 277.325 196.89 277.88C197.115 278.408 197.438 278.89 197.84 279.3C198.254 279.702 198.743 280.019 199.28 280.23C200.398 280.636 201.622 280.636 202.74 280.23C203.283 280.036 203.773 279.718 204.17 279.3L204.64 279.78C204.192 280.248 203.646 280.61 203.04 280.84C202.407 281.111 201.729 281.264 201.04 281.29Z" fill="#333333"/>
<path d="M207.82 280.56H214.05V281.22H207.05V271.14H213.79V271.84H207.79L207.82 280.56ZM207.74 275.77H213.2V276.42H207.74V275.77Z" fill="#333333"/>
<path d="M224.69 281.29C223.979 281.295 223.273 281.166 222.61 280.91C221.991 280.667 221.427 280.303 220.95 279.84C220.482 279.376 220.109 278.826 219.85 278.22C219.33 276.91 219.33 275.45 219.85 274.14C220.104 273.531 220.478 272.98 220.95 272.52C221.43 272.055 221.997 271.691 222.62 271.45C223.277 271.185 223.981 271.052 224.69 271.06C225.372 271.056 226.05 271.175 226.69 271.41C227.29 271.616 227.835 271.958 228.28 272.41L227.82 272.89C227.417 272.482 226.929 272.167 226.39 271.97C225.854 271.78 225.289 271.685 224.72 271.69C224.108 271.684 223.5 271.797 222.93 272.02C222.391 272.231 221.901 272.551 221.49 272.96C221.079 273.359 220.755 273.839 220.54 274.37C220.308 274.927 220.192 275.526 220.2 276.13C220.192 276.73 220.308 277.326 220.54 277.88C220.758 278.412 221.081 278.895 221.49 279.3C221.904 279.702 222.393 280.019 222.93 280.23C223.5 280.453 224.108 280.565 224.72 280.56C225.289 280.565 225.854 280.47 226.39 280.28C226.933 280.086 227.423 279.768 227.82 279.35L228.28 279.83C227.838 280.3 227.294 280.662 226.69 280.89C226.053 281.142 225.375 281.278 224.69 281.29Z" fill="#333333"/>
<path d="M234.81 281.29C234.096 281.295 233.387 281.166 232.72 280.91C232.1 280.66 231.533 280.294 231.05 279.83C230.579 279.365 230.205 278.811 229.95 278.2C229.43 276.9 229.43 275.45 229.95 274.15C230.204 273.535 230.58 272.978 231.056 272.514C231.533 272.049 232.099 271.687 232.72 271.45C234.062 270.93 235.549 270.93 236.89 271.45C237.507 271.69 238.07 272.052 238.544 272.514C239.018 272.976 239.394 273.529 239.65 274.14C240.184 275.448 240.184 276.912 239.65 278.22C239.391 278.826 239.018 279.376 238.55 279.84C238.074 280.303 237.509 280.667 236.89 280.91C236.227 281.165 235.521 281.294 234.81 281.29ZM234.81 280.61C235.419 280.615 236.024 280.503 236.59 280.28C237.124 280.068 237.61 279.752 238.02 279.35C238.636 278.705 239.053 277.895 239.219 277.019C239.386 276.142 239.296 275.236 238.96 274.41C238.742 273.886 238.423 273.41 238.02 273.01C237.613 272.602 237.127 272.282 236.59 272.07C235.441 271.631 234.17 271.631 233.02 272.07C232.483 272.279 231.995 272.599 231.59 273.01C231.164 273.402 230.823 273.879 230.59 274.41C230.357 274.97 230.241 275.573 230.25 276.18C230.242 276.78 230.358 277.376 230.59 277.93C230.823 278.467 231.163 278.95 231.59 279.35C231.998 279.754 232.485 280.071 233.02 280.28C233.59 280.504 234.198 280.616 234.81 280.61Z" fill="#333333"/>
<path d="M242.6 281.22V271.14H243.22L247.9 279.22H247.57L252.24 271.14H252.84V281.22H252.12V272.22H252.32L247.9 279.84H247.54L243.12 272.24H243.34V281.24L242.6 281.22Z" fill="#333333"/>
<path d="M256.37 281.22V271.14H259.99C260.734 271.119 261.473 271.256 262.16 271.54C262.732 271.778 263.22 272.182 263.56 272.7C263.881 273.254 264.051 273.884 264.051 274.525C264.051 275.166 263.881 275.795 263.56 276.35C263.22 276.871 262.733 277.278 262.16 277.52C261.473 277.804 260.734 277.941 259.99 277.92H256.77L257.1 277.57V281.22H256.37ZM257.1 277.62L256.77 277.26H259.99C260.873 277.32 261.748 277.065 262.46 276.54C262.743 276.292 262.965 275.983 263.11 275.637C263.256 275.29 263.321 274.915 263.3 274.54C263.319 274.165 263.253 273.791 263.107 273.444C262.962 273.098 262.741 272.789 262.46 272.54C261.745 272.023 260.871 271.772 259.99 271.83H256.77L257.1 271.47V277.62Z" fill="#333333"/>
<path d="M264.34 281.22L268.97 271.14H269.71L274.35 281.22H273.55L269.18 271.6H269.49L265.12 281.22H264.34ZM266.04 278.38L266.28 277.76H272.28L272.52 278.38H266.04Z" fill="#333333"/>
<path d="M276.18 281.22V271.14H276.8L283.99 280.31H283.65V271.14H284.39V281.22H283.78L276.58 272.04H276.91V281.22H276.18Z" fill="#333333"/>
<path d="M290.28 281.22V277.56L290.45 278.04L286.22 271.14H287.03L290.87 277.4H290.47L294.31 271.14H295.12L290.88 278.04L291.05 277.56V281.22H290.28Z" fill="#333333"/>
</g>
<defs>
<clipPath id="clip0_513_6647">
<rect width="296" height="282" fill="white"/>
</clipPath>
</defs>
</svg>
